# xmcd
#
# Track frame offsets:
#	150
#	16754
#	34720
#	52251
#	67289
#	85456
#	104157
#	123797
#	145105
#	159855
#	194402
#
# Disc length: 3216 seconds
#
# Revision: 1
# Processed by: cddbd v1.5.2PL0 Copyright (c) Steve Scherf et al.
# Submitted via: audiograbber 1.83.01
#
DISCID=9a0c8e0b
DTITLE=Lady Antebellum - (CB)KGR13044
DYEAR=2010
DGENRE=Karaoke
TTITLE0=American Honey
TTITLE1=I Run To You
TTITLE2=I Was Here
TTITLE3=Lookin' For A Good Time
TTITLE4=Love Don't Live Here
TTITLE5=Need You Now
TTITLE6=Our Kind Of Love
TTITLE7=Hello World
TTITLE8=Love This Pain
TTITLE9=When you Got A Good Thing
TTITLE10=Data Track
EXTD=
EXTT0=
EXTT1=
EXTT2=
EXTT3=
EXTT4=
EXTT5=
EXTT6=
EXTT7=
EXTT8=
EXTT9=
EXTT10=
PLAYORDER=
